<?xml version="1.0" standalone="no"?>
<!DOCTYPE svg PUBLIC "-//W3C//DTD SVG 20010904//EN"
 "http://www.w3.org/TR/2001/REC-SVG-20010904/DTD/svg10.dtd">
<svg version="1.0" xmlns="http://www.w3.org/2000/svg"
 width="1024.000000pt" height="1024.000000pt" viewBox="0 0 1024.000000 1024.000000"
 preserveAspectRatio="xMidYMid meet">

<g transform="translate(0.000000,1024.000000) scale(0.100000,-0.100000)"
fill="#000000" stroke="none">
<path d="M1395 8863 c-16 -2 -52 -11 -80 -20 -156 -50 -265 -144 -337 -290
l-43 -88 0 -2560 0 -2560 31 -65 c39 -82 103 -148 179 -186 l60 -29 3915 0
3915 0 57 27 c76 35 138 95 179 170 l34 63 3 2539 c2 2264 1 2546 -13 2600
-46 177 -172 312 -355 378 l-65 23 -3725 1 c-2049 1 -3738 -1 -3755 -3z m7478
-403 c21 -14 46 -43 57 -66 20 -40 20 -66 20 -2343 0 -2121 -1 -2304 -16
-2327 -39 -58 257 -54 -3801 -54 -2586 0 -3740 3 -3766 11 -26 7 -44 21 -58
42 -19 32 -19 67 -17 2347 l3 2315 23 33 c13 18 40 41 60 52 36 19 92 19 3748
17 l3710 -2 37 -25z"/>
<path d="M4930 7617 c-3 -3 -39 -8 -80 -11 -509 -45 -1089 -305 -1610 -723
-247 -198 -643 -606 -712 -734 -16 -28 -28 -65 -28 -83 0 -87 100 -217 389
-507 342 -342 648 -567 1031 -759 460 -230 967 -338 1390 -296 535 53 987 232
1515 600 242 169 591 496 799 750 115 139 130 179 106 267 -15 53 -229 298
-426 486 -593 568 -1178 883 -1840 988 -94 15 -523 33 -534 22z m375 -372
c135 -14 172 -20 280 -45 289 -68 510 -158 770 -313 197 -118 406 -275 587
-441 146 -133 378 -374 378 -393 0 -22 -381 -398 -508 -501 -438 -356 -868
-565 -1339 -653 -173 -32 -517 -33 -688 -1 -364 66 -723 214 -1060 437 -182
120 -335 244 -515 415 -133 125 -290 296 -290 315 0 21 356 376 486 485 618
515 1280 757 1899 695z"/>
<path d="M4930 6910 c-339 -73 -605 -335 -675 -665 -21 -101 -19 -271 5 -380
23 -103 80 -230 145 -321 48 -67 156 -171 220 -212 355 -228 799 -189 1097 96
217 207 313 494 262 781 -19 107 -69 234 -129 326 -21 33 -77 98 -125 145
-210 208 -508 293 -800 230z m349 -540 c110 -59 183 -166 198 -291 6 -54 -17
-143 -54 -206 -75 -129 -244 -197 -393 -159 -119 31 -200 101 -246 214 -52
125 -15 295 82 383 85 77 150 100 265 95 75 -3 95 -8 148 -36z"/>
<path d="M4015 2829 c-5 -14 -156 -758 -177 -871 l-10 -58 -277 0 c-305 0
-350 -6 -407 -57 -72 -63 -102 -183 -80 -312 16 -88 34 -119 88 -147 42 -22
3896 -21 3938 1 70 36 108 164 86 290 -15 83 -26 107 -75 158 -58 61 -93 67
-411 67 l-276 0 -88 440 c-102 513 -94 471 -95 489 -1 12 -32 13 -187 8 -103
-3 -188 -7 -189 -9 -1 -2 29 -156 66 -343 38 -187 71 -353 74 -370 4 -16 15
-70 26 -120 10 -49 19 -90 19 -92 0 -2 -413 -3 -918 -3 l-918 0 68 333 c37
182 69 343 72 357 2 14 14 71 26 128 12 57 20 106 17 108 -2 2 -86 7 -185 11
-150 5 -182 3 -187 -8z"/>
</g>
</svg>
